<svg width="595" height="547" viewBox="0 0 595 547" fill="none" xmlns="http://www.w3.org/2000/svg">
<g clip-path="url(#clip0_110_7203)">
<path d="M117.262 181.584C110.197 182.222 108.019 182.966 107.381 184.825C106.69 186.791 107.54 189.075 109.24 189.872C110.25 190.35 111.419 190.35 114.234 189.925C119.494 189.075 141.328 189.075 147.172 189.925C164.278 192.369 177.772 196.831 187.334 203.312C191.106 205.916 195.834 211.016 197.375 214.203C200.031 219.675 199.075 226.262 194.931 231.681C188.397 240.234 171.875 247.937 153.228 251.072C113.597 257.766 69.4498 245.016 63.7123 225.2C60.3654 213.672 71.0435 202.197 91.8685 195.025C96.5435 193.431 97.6592 192.794 98.2967 191.625C99.3592 189.553 98.5092 187.162 96.3842 186.312C95.056 185.728 94.206 185.887 89.7435 187.322C70.9904 193.537 57.9748 204.534 55.531 216.222C55.1592 218.134 54.9998 238.375 55.106 282.203L55.2654 345.422L57.1779 349.459C60.6842 356.844 68.9717 364.069 80.2873 369.753C84.5373 371.878 95.7467 375.969 101.219 377.403L103.078 377.881L103.344 388.187C103.662 400.3 104.247 402.372 108.709 406.516C113.544 411.031 114.553 411.297 128.844 411.35C143.665 411.456 149.456 412.041 166.987 415.387C172.459 416.45 175.594 417.3 175.594 417.672C175.594 418.044 176.444 420.062 177.506 422.134C184.465 436.053 207.362 447.953 234.828 452.044C241.947 453.053 261.497 452.947 268.828 451.778C281.844 449.706 290.769 446.997 301.234 441.844C313.506 435.787 321.369 428.987 325.087 421.125L326.734 417.672L326.894 370.231L327.053 322.844L325.725 321.516C324.025 319.816 322.006 319.816 320.359 321.516L319.031 322.791V368.903V415.016L317.703 417.831C315.206 423.25 306.919 430.422 298.047 434.831C290.237 438.709 279.4 441.95 268.297 443.756C261.019 444.978 242.637 445.137 235.094 444.022C224.628 442.534 211.984 438.762 204.015 434.831C195.25 430.422 186.962 423.569 184.519 418.628L183.297 416.078L183.137 363.484L183.031 310.891L185.528 313.334C203.059 330.281 245.931 337.559 281.419 329.697C306.494 324.172 324.078 311.262 326.628 296.6C329.922 277.422 307.184 259.784 272.44 254.578C269.412 254.153 266.119 253.781 265.109 253.781H263.25V246.716C263.25 235.612 262.187 231.416 258.309 227.325C253.847 222.65 248.534 221.216 235.359 221.216C226.115 221.216 219.209 222.012 211.081 223.978L206.937 224.934V221.375C206.937 202.941 185.209 187.587 151.953 182.541C143.825 181.266 125.656 180.787 117.262 181.584ZM242.478 229.344C248.8 230.034 251.562 231.203 253.528 234.178C254.962 236.409 255.015 236.516 255.015 244.697V252.984L245.187 253.303C232.331 253.781 219.634 255.853 210.444 259.041C208.69 259.678 207.203 260.156 207.097 260.156C207.044 260.156 206.937 254.1 206.937 246.662V233.169L211.612 232.053C223.884 229.131 232.915 228.334 242.478 229.344ZM78.6404 250.062C93.1435 257.234 110.197 260.741 130.703 260.794C142.178 260.794 148.925 260.156 158.859 258.191C174.106 255.216 187.281 249.425 195.94 241.987L198.969 239.384V251.497V263.609L195.994 265.15C192.753 266.85 186.962 270.994 184.2 273.65C181.65 275.987 178.09 281.141 176.656 284.594C175.753 286.772 175.381 288.897 175.169 292.987C174.956 298.247 174.85 298.459 173.787 298.194C170.759 297.45 157.265 295.112 151.262 294.316C142.603 293.147 122.628 293.041 117.953 294.103C111.79 295.484 107.54 298.619 105.097 303.612L103.609 306.641L103.45 338.091C103.344 357.109 103.131 369.594 102.812 369.594C101.644 369.594 89.3185 365.291 85.6529 363.591C76.6748 359.447 68.3873 352.912 65.0935 347.494L63.2342 344.412L63.0748 291.925L62.9685 239.437L67.5904 243.209C70.5654 245.6 74.5498 248.044 78.6404 250.062ZM265.8 261.803C292.575 264.672 314.622 275.987 318.287 288.737C322.856 304.356 301.447 319.391 268.031 324.012C261.39 324.916 240.087 324.916 233.765 324.012C213.1 320.984 197.056 314.344 188.769 305.419C185.05 301.381 183.509 298.194 183.19 293.997C182.022 279.228 204.653 265.362 235.625 261.803C241.415 261.166 259.797 261.112 265.8 261.803ZM151.581 302.391C155.194 302.869 161.887 304.037 166.456 304.941L174.797 306.641L174.956 357.8C175.062 406.409 175.009 408.959 174.159 408.694C173.628 408.534 170.122 407.844 166.297 407.1C151.103 404.178 136.812 402.85 126.187 403.381C119.6 403.7 118.803 403.647 116.89 402.637C114.34 401.362 112.64 399.609 111.897 397.591C111.472 396.581 111.312 382.131 111.312 352.647V309.191L112.534 306.853C114.022 303.984 116.89 302.284 121.247 301.594C125.762 300.903 144.037 301.381 151.581 302.391Z" fill="black"/>
<path d="M243.859 277.847C237.697 279.441 232.756 283 230.525 287.409C229.356 289.694 229.197 290.65 229.356 293.625C229.622 298.406 231.534 301.594 235.944 304.516C240.778 307.809 244.337 308.766 251.297 308.712C258.044 308.659 261.656 307.597 266.278 304.462C276.956 297.131 274.034 283.372 260.859 278.697C256.875 277.316 247.79 276.837 243.859 277.847ZM259.69 286.878C266.809 290.384 266.437 296.175 258.894 299.522C254.909 301.275 247.153 301.328 243.328 299.575C236.209 296.334 235.094 291.234 240.725 287.781C243.965 285.709 246.728 285.125 251.881 285.284C255.865 285.391 257.194 285.656 259.69 286.878Z" fill="black"/>
<path d="M124.806 205.703C118.059 207.137 112.321 211.122 110.196 215.797C107.275 222.172 110.781 230.353 118.112 234.072C125.178 237.684 136.759 237.684 143.771 234.072C146.906 232.478 150.359 229.131 151.634 226.422C153.068 223.394 153.121 218.719 151.74 215.691C148.128 207.828 135.909 203.259 124.806 205.703ZM135.325 213.459C145.843 215.691 148.075 223.341 139.362 227.272C136.971 228.334 135.696 228.547 130.968 228.547C125.921 228.547 125.071 228.387 122.362 227.059C118.75 225.253 117.156 223.447 117.156 221.056C117.156 215.637 126.665 211.653 135.325 213.459Z" fill="black"/>
<path d="M213.206 356.366C208.903 357.587 204.866 362.741 204.812 367.097C204.812 369.541 206.725 371.719 208.797 371.719C210.55 371.719 212.781 369.541 212.781 367.841C212.781 365.769 214.481 364.122 216.5 364.122C218.519 364.122 220.219 365.769 220.219 367.841C220.219 369.541 222.45 371.719 224.203 371.719C226.009 371.719 228.188 369.487 228.188 367.681C228.188 360.297 220.431 354.4 213.206 356.366Z" fill="black"/>
<path d="M282.269 356.419C278.019 357.534 273.928 362.741 273.875 367.097C273.875 369.541 275.787 371.719 277.859 371.719C279.612 371.719 281.844 369.487 281.844 367.734C281.844 366.087 284.022 363.75 285.562 363.75C287.103 363.75 289.281 366.087 289.281 367.734C289.281 369.487 291.512 371.719 293.266 371.719C294.009 371.719 295.231 371.134 295.922 370.391C299.534 366.831 294.912 358.012 288.591 356.419C285.775 355.675 284.978 355.675 282.269 356.419Z" fill="black"/>
<path d="M242.425 361.837C237.856 362.794 234.615 365.078 232.809 368.531C231.375 371.294 231.268 371.772 231.481 376.766C231.64 381.387 231.906 382.556 233.34 385.637C236.262 391.906 241.362 395.944 248.056 397.325C258.575 399.556 269.837 390.1 270.581 378.412C270.9 372.994 270.368 370.125 268.562 367.362C266.65 364.494 263.143 362.475 258.787 361.678C254.697 360.934 246.303 360.987 242.425 361.837ZM257.884 369.647C261.55 370.444 262.718 371.984 262.718 375.969C262.718 383.247 258.362 388.719 251.934 389.569C249.915 389.887 248.959 389.675 246.568 388.506C241.734 386.116 239.397 382.078 239.343 375.916C239.343 371.878 240.3 370.497 243.859 369.647C246.834 368.956 254.697 368.956 257.884 369.647Z" fill="black"/>
</g>
<path d="M402 324.5C391 324.5 381.5 322.417 373.5 318.25C365.667 314.083 359.583 308.083 355.25 300.25C351.083 292.25 349 282.833 349 272V189.5C349 178.5 351.083 169.083 355.25 161.25C359.583 153.417 365.667 147.417 373.5 143.25C381.5 139.083 391 137 402 137C413 137 422.417 139.083 430.25 143.25C438.25 147.417 444.333 153.417 448.5 161.25C452.833 169.083 455 178.417 455 189.25V272C455 282.833 452.833 292.25 448.5 300.25C444.333 308.083 438.25 314.083 430.25 318.25C422.417 322.417 413 324.5 402 324.5ZM402 304.25C411.833 304.25 419.333 301.5 424.5 296C429.833 290.333 432.5 282.333 432.5 272V189.5C432.5 179.167 429.833 171.25 424.5 165.75C419.333 160.083 411.833 157.25 402 157.25C392.333 157.25 384.833 160.083 379.5 165.75C374.167 171.25 371.5 179.167 371.5 189.5V272C371.5 282.333 374.167 290.333 379.5 296C384.833 301.5 392.333 304.25 402 304.25ZM468.152 322V139.5H490.652V241.25H517.152L557.152 184.5H582.902L536.652 250L583.652 322H557.402L517.402 260.75H490.652V322H468.152Z" fill="black"/>
<path d="M337.75 472V334.5H359.75V360.75H365L357.75 377C357.75 362.167 360.917 351 367.25 343.5C373.75 335.833 383.333 332 396 332C410.5 332 422 336.583 430.5 345.75C439.167 354.75 443.5 367 443.5 382.5V390.75H421V384.5C421 373.667 418.333 365.417 413 359.75C407.833 353.917 400.417 351 390.75 351C381.25 351 373.75 353.917 368.25 359.75C362.917 365.583 360.25 373.833 360.25 384.5V472H337.75Z" fill="black"/>
<path d="M23 255V72.5H81.75C93.0833 72.5 102.917 74.75 111.25 79.25C119.583 83.5833 126 89.75 130.5 97.75C135.167 105.75 137.5 115.25 137.5 126.25C137.5 137.083 135.167 146.583 130.5 154.75C126 162.75 119.583 169 111.25 173.5C102.917 177.833 93.0833 180 81.75 180H45.5V255H23ZM45.5 159.75H81.75C91.5833 159.75 99.4167 156.75 105.25 150.75C111.25 144.583 114.25 136.417 114.25 126.25C114.25 115.917 111.25 107.75 105.25 101.75C99.4167 95.75 91.5833 92.75 81.75 92.75H45.5V159.75Z" fill="black"/>
<defs>
<clipPath id="clip0_110_7203">
<rect width="272" height="272" fill="white" transform="translate(55 181)"/>
</clipPath>
</defs>
</svg>
