<svg width="595" height="547" viewBox="0 0 595 547" fill="none" xmlns="http://www.w3.org/2000/svg">
<g clip-path="url(#clip0_110_7204)">
<path d="M117.263 181.584C110.197 182.222 108.019 182.966 107.382 184.825C106.691 186.791 107.541 189.075 109.241 189.872C110.25 190.35 111.419 190.35 114.235 189.925C119.494 189.075 141.328 189.075 147.172 189.925C164.278 192.369 177.772 196.831 187.335 203.312C191.107 205.916 195.835 211.016 197.375 214.203C200.032 219.675 199.075 226.262 194.932 231.681C188.397 240.234 171.875 247.937 153.228 251.072C113.597 257.766 69.4503 245.016 63.7128 225.2C60.3659 213.672 71.044 202.197 91.869 195.025C96.544 193.431 97.6597 192.794 98.2972 191.625C99.3597 189.553 98.5097 187.162 96.3847 186.312C95.0565 185.728 94.2065 185.887 89.744 187.322C70.9909 193.537 57.9753 204.534 55.5315 216.222C55.1597 218.134 55.0003 238.375 55.1065 282.203L55.2659 345.422L57.1784 349.459C60.6847 356.844 68.9722 364.069 80.2878 369.753C84.5378 371.878 95.7472 375.969 101.219 377.403L103.078 377.881L103.344 388.187C103.663 400.3 104.247 402.372 108.71 406.516C113.544 411.031 114.553 411.297 128.844 411.35C143.666 411.456 149.457 412.041 166.988 415.387C172.46 416.45 175.594 417.3 175.594 417.672C175.594 418.044 176.444 420.062 177.507 422.134C184.466 436.053 207.363 447.953 234.828 452.044C241.947 453.053 261.497 452.947 268.828 451.778C281.844 449.706 290.769 446.997 301.235 441.844C313.507 435.787 321.369 428.987 325.088 421.125L326.735 417.672L326.894 370.231L327.053 322.844L325.725 321.516C324.025 319.816 322.007 319.816 320.36 321.516L319.032 322.791V368.903V415.016L317.703 417.831C315.207 423.25 306.919 430.422 298.047 434.831C290.238 438.709 279.4 441.95 268.297 443.756C261.019 444.978 242.638 445.137 235.094 444.022C224.628 442.534 211.985 438.762 204.016 434.831C195.25 430.422 186.963 423.569 184.519 418.628L183.297 416.078L183.138 363.484L183.032 310.891L185.528 313.334C203.06 330.281 245.932 337.559 281.419 329.697C306.494 324.172 324.078 311.262 326.628 296.6C329.922 277.422 307.185 259.784 272.441 254.578C269.413 254.153 266.119 253.781 265.11 253.781H263.25V246.716C263.25 235.612 262.188 231.416 258.31 227.325C253.847 222.65 248.535 221.216 235.36 221.216C226.116 221.216 219.21 222.012 211.082 223.978L206.938 224.934V221.375C206.938 202.941 185.21 187.587 151.953 182.541C143.825 181.266 125.657 180.787 117.263 181.584ZM242.478 229.344C248.8 230.034 251.563 231.203 253.528 234.178C254.963 236.409 255.016 236.516 255.016 244.697V252.984L245.188 253.303C232.332 253.781 219.635 255.853 210.444 259.041C208.691 259.678 207.203 260.156 207.097 260.156C207.044 260.156 206.938 254.1 206.938 246.662V233.169L211.613 232.053C223.885 229.131 232.916 228.334 242.478 229.344ZM78.6409 250.062C93.144 257.234 110.197 260.741 130.703 260.794C142.178 260.794 148.925 260.156 158.86 258.191C174.107 255.216 187.282 249.425 195.941 241.987L198.969 239.384V251.497V263.609L195.994 265.15C192.753 266.85 186.963 270.994 184.2 273.65C181.65 275.987 178.091 281.141 176.657 284.594C175.753 286.772 175.382 288.897 175.169 292.987C174.957 298.247 174.85 298.459 173.788 298.194C170.76 297.45 157.266 295.112 151.263 294.316C142.603 293.147 122.628 293.041 117.953 294.103C111.791 295.484 107.541 298.619 105.097 303.612L103.61 306.641L103.45 338.091C103.344 357.109 103.132 369.594 102.813 369.594C101.644 369.594 89.319 365.291 85.6534 363.591C76.6753 359.447 68.3878 352.912 65.094 347.494L63.2347 344.412L63.0753 291.925L62.969 239.437L67.5909 243.209C70.5659 245.6 74.5503 248.044 78.6409 250.062ZM265.8 261.803C292.575 264.672 314.622 275.987 318.288 288.737C322.857 304.356 301.447 319.391 268.032 324.012C261.391 324.916 240.088 324.916 233.766 324.012C213.1 320.984 197.057 314.344 188.769 305.419C185.05 301.381 183.51 298.194 183.191 293.997C182.022 279.228 204.653 265.362 235.625 261.803C241.416 261.166 259.797 261.112 265.8 261.803ZM151.582 302.391C155.194 302.869 161.888 304.037 166.457 304.941L174.797 306.641L174.957 357.8C175.063 406.409 175.01 408.959 174.16 408.694C173.628 408.534 170.122 407.844 166.297 407.1C151.103 404.178 136.813 402.85 126.188 403.381C119.6 403.7 118.803 403.647 116.891 402.637C114.341 401.362 112.641 399.609 111.897 397.591C111.472 396.581 111.313 382.131 111.313 352.647V309.191L112.535 306.853C114.022 303.984 116.891 302.284 121.247 301.594C125.763 300.903 144.038 301.381 151.582 302.391Z" fill="black"/>
<path d="M243.86 277.847C237.697 279.441 232.757 283 230.525 287.409C229.357 289.694 229.197 290.65 229.357 293.625C229.622 298.406 231.535 301.594 235.944 304.516C240.778 307.809 244.338 308.766 251.297 308.712C258.044 308.659 261.657 307.597 266.278 304.462C276.957 297.131 274.035 283.372 260.86 278.697C256.875 277.316 247.791 276.837 243.86 277.847ZM259.691 286.878C266.81 290.384 266.438 296.175 258.894 299.522C254.91 301.275 247.153 301.328 243.328 299.575C236.21 296.334 235.094 291.234 240.725 287.781C243.966 285.709 246.728 285.125 251.882 285.284C255.866 285.391 257.194 285.656 259.691 286.878Z" fill="black"/>
<path d="M124.806 205.703C118.059 207.137 112.322 211.122 110.197 215.797C107.275 222.172 110.781 230.353 118.113 234.072C125.178 237.684 136.759 237.684 143.772 234.072C146.906 232.478 150.359 229.131 151.634 226.422C153.069 223.394 153.122 218.719 151.741 215.691C148.128 207.828 135.909 203.259 124.806 205.703ZM135.325 213.459C145.844 215.691 148.075 223.341 139.363 227.272C136.972 228.334 135.697 228.547 130.969 228.547C125.922 228.547 125.072 228.387 122.363 227.059C118.75 225.253 117.156 223.447 117.156 221.056C117.156 215.637 126.666 211.653 135.325 213.459Z" fill="black"/>
<circle cx="214.5" cy="364.5" r="11.5" fill="black"/>
<circle cx="287.5" cy="364.5" r="11.5" fill="black"/>
<rect x="231" y="386" width="40" height="8" rx="4" fill="black"/>
</g>
<path d="M402 324.5C391 324.5 381.5 322.417 373.5 318.25C365.667 314.083 359.583 308.083 355.25 300.25C351.083 292.25 349 282.833 349 272V189.5C349 178.5 351.083 169.083 355.25 161.25C359.583 153.417 365.667 147.417 373.5 143.25C381.5 139.083 391 137 402 137C413 137 422.417 139.083 430.25 143.25C438.25 147.417 444.333 153.417 448.5 161.25C452.833 169.083 455 178.417 455 189.25V272C455 282.833 452.833 292.25 448.5 300.25C444.333 308.083 438.25 314.083 430.25 318.25C422.417 322.417 413 324.5 402 324.5ZM402 304.25C411.833 304.25 419.333 301.5 424.5 296C429.833 290.333 432.5 282.333 432.5 272V189.5C432.5 179.167 429.833 171.25 424.5 165.75C419.333 160.083 411.833 157.25 402 157.25C392.333 157.25 384.833 160.083 379.5 165.75C374.167 171.25 371.5 179.167 371.5 189.5V272C371.5 282.333 374.167 290.333 379.5 296C384.833 301.5 392.333 304.25 402 304.25ZM468.152 322V139.5H490.652V241.25H517.152L557.152 184.5H582.902L536.652 250L583.652 322H557.402L517.402 260.75H490.652V322H468.152Z" fill="black"/>
<path d="M337.75 472V334.5H359.75V360.75H365L357.75 377C357.75 362.167 360.917 351 367.25 343.5C373.75 335.833 383.333 332 396 332C410.5 332 422 336.583 430.5 345.75C439.167 354.75 443.5 367 443.5 382.5V390.75H421V384.5C421 373.667 418.333 365.417 413 359.75C407.833 353.917 400.417 351 390.75 351C381.25 351 373.75 353.917 368.25 359.75C362.917 365.583 360.25 373.833 360.25 384.5V472H337.75Z" fill="black"/>
<path d="M23 255V72.5H81.75C93.0833 72.5 102.917 74.75 111.25 79.25C119.583 83.5833 126 89.75 130.5 97.75C135.167 105.75 137.5 115.25 137.5 126.25C137.5 137.083 135.167 146.583 130.5 154.75C126 162.75 119.583 169 111.25 173.5C102.917 177.833 93.0833 180 81.75 180H45.5V255H23ZM45.5 159.75H81.75C91.5833 159.75 99.4167 156.75 105.25 150.75C111.25 144.583 114.25 136.417 114.25 126.25C114.25 115.917 111.25 107.75 105.25 101.75C99.4167 95.75 91.5833 92.75 81.75 92.75H45.5V159.75Z" fill="black"/>
<defs>
<clipPath id="clip0_110_7204">
<rect width="272" height="272" fill="white" transform="translate(55 181)"/>
</clipPath>
</defs>
</svg>
