<svg width="595" height="547" viewBox="0 0 595 547" fill="currentColor" xmlns="http://www.w3.org/2000/svg">
<g clip-path="url(#clip0_110_7242)">
<path d="M118.263 181.584C111.197 182.222 109.019 182.966 108.382 184.825C107.691 186.791 108.541 189.075 110.241 189.872C111.25 190.35 112.419 190.35 115.235 189.925C120.494 189.075 142.328 189.075 148.172 189.925C165.278 192.369 178.772 196.831 188.335 203.313C192.107 205.916 196.835 211.016 198.375 214.203C201.032 219.675 200.075 226.263 195.932 231.681C189.397 240.234 172.875 247.938 154.228 251.072C114.597 257.766 70.4503 245.016 64.7128 225.2C61.3659 213.672 72.044 202.197 92.869 195.025C97.544 193.431 98.6597 192.794 99.2972 191.625C100.36 189.553 99.5097 187.163 97.3847 186.313C96.0565 185.728 95.2065 185.888 90.744 187.322C71.9909 193.538 58.9753 204.534 56.5315 216.222C56.1597 218.134 56.0003 238.375 56.1065 282.203L56.2659 345.422L58.1784 349.459C61.6847 356.844 69.9722 364.069 81.2878 369.753C85.5378 371.878 96.7472 375.969 102.219 377.403L104.078 377.881L104.344 388.188C104.663 400.3 105.247 402.372 109.71 406.516C114.544 411.031 115.553 411.297 129.844 411.35C144.666 411.456 150.457 412.041 167.988 415.388C173.46 416.45 176.594 417.3 176.594 417.672C176.594 418.044 177.444 420.063 178.507 422.134C185.466 436.053 208.363 447.953 235.828 452.044C242.947 453.053 262.497 452.947 269.828 451.778C282.844 449.706 291.769 446.997 302.235 441.844C314.507 435.788 322.369 428.988 326.088 421.125L327.735 417.672L327.894 370.231L328.053 322.844L326.725 321.516C325.025 319.816 323.007 319.816 321.36 321.516L320.032 322.791V368.903V415.016L318.703 417.831C316.207 423.25 307.919 430.422 299.047 434.831C291.238 438.709 280.4 441.95 269.297 443.756C262.019 444.978 243.638 445.138 236.094 444.022C225.628 442.534 212.985 438.763 205.016 434.831C196.25 430.422 187.963 423.569 185.519 418.628L184.297 416.078L184.138 363.484L184.032 310.891L186.528 313.334C204.06 330.281 246.932 337.559 282.419 329.697C307.494 324.172 325.078 311.263 327.628 296.6C330.922 277.422 308.185 259.784 273.441 254.578C270.413 254.153 267.119 253.781 266.11 253.781H264.25V246.716C264.25 235.613 263.188 231.416 259.31 227.325C254.847 222.65 249.535 221.216 236.36 221.216C227.116 221.216 220.21 222.013 212.082 223.978L207.938 224.934V221.375C207.938 202.941 186.21 187.588 152.953 182.541C144.825 181.266 126.657 180.788 118.263 181.584ZM243.478 229.344C249.8 230.034 252.563 231.203 254.528 234.178C255.963 236.409 256.016 236.516 256.016 244.697V252.984L246.188 253.303C233.332 253.781 220.635 255.853 211.444 259.041C209.691 259.678 208.203 260.156 208.097 260.156C208.044 260.156 207.938 254.1 207.938 246.663V233.169L212.613 232.053C224.885 229.131 233.916 228.334 243.478 229.344ZM79.6409 250.063C94.144 257.234 111.197 260.741 131.703 260.794C143.178 260.794 149.925 260.156 159.86 258.191C175.107 255.216 188.282 249.425 196.941 241.988L199.969 239.384V251.497V263.609L196.994 265.15C193.753 266.85 187.963 270.994 185.2 273.65C182.65 275.988 179.091 281.141 177.657 284.594C176.753 286.772 176.382 288.897 176.169 292.988C175.957 298.247 175.85 298.459 174.788 298.194C171.76 297.45 158.266 295.113 152.263 294.316C143.603 293.147 123.628 293.041 118.953 294.103C112.791 295.484 108.541 298.619 106.097 303.613L104.61 306.641L104.45 338.091C104.344 357.109 104.132 369.594 103.813 369.594C102.644 369.594 90.319 365.291 86.6534 363.591C77.6753 359.447 69.3878 352.913 66.094 347.494L64.2347 344.413L64.0753 291.925L63.969 239.438L68.5909 243.209C71.5659 245.6 75.5503 248.044 79.6409 250.063ZM266.8 261.803C293.575 264.672 315.622 275.988 319.288 288.738C323.857 304.356 302.447 319.391 269.032 324.013C262.391 324.916 241.088 324.916 234.766 324.013C214.1 320.984 198.057 314.344 189.769 305.419C186.05 301.381 184.51 298.194 184.191 293.997C183.022 279.228 205.653 265.363 236.625 261.803C242.416 261.166 260.797 261.113 266.8 261.803ZM152.582 302.391C156.194 302.869 162.888 304.038 167.457 304.941L175.797 306.641L175.957 357.8C176.063 406.409 176.01 408.959 175.16 408.694C174.628 408.534 171.122 407.844 167.297 407.1C152.103 404.178 137.813 402.85 127.188 403.381C120.6 403.7 119.803 403.647 117.891 402.638C115.341 401.363 113.641 399.609 112.897 397.591C112.472 396.581 112.313 382.131 112.313 352.647V309.191L113.535 306.853C115.022 303.984 117.891 302.284 122.247 301.594C126.763 300.903 145.038 301.381 152.582 302.391Z" fill="currentColor"/>
<path d="M244.86 277.847C238.697 279.441 233.757 283 231.525 287.409C230.357 289.694 230.197 290.65 230.357 293.625C230.622 298.406 232.535 301.594 236.944 304.516C241.778 307.809 245.338 308.766 252.297 308.713C259.044 308.659 262.657 307.597 267.278 304.463C277.957 297.131 275.035 283.372 261.86 278.697C257.875 277.316 248.791 276.838 244.86 277.847ZM260.691 286.878C267.81 290.384 267.438 296.175 259.894 299.522C255.91 301.275 248.153 301.328 244.328 299.575C237.21 296.334 236.094 291.234 241.725 287.781C244.966 285.709 247.728 285.125 252.882 285.284C256.866 285.391 258.194 285.656 260.691 286.878Z" fill="currentColor"/>
<path d="M125.806 205.703C119.059 207.137 113.322 211.122 111.197 215.797C108.275 222.172 111.781 230.353 119.113 234.072C126.178 237.684 137.759 237.684 144.772 234.072C147.906 232.478 151.359 229.131 152.634 226.422C154.069 223.394 154.122 218.719 152.741 215.691C149.128 207.828 136.909 203.259 125.806 205.703ZM136.325 213.459C146.844 215.691 149.075 223.341 140.363 227.272C137.972 228.334 136.697 228.547 131.969 228.547C126.922 228.547 126.072 228.387 123.363 227.059C119.75 225.253 118.156 223.447 118.156 221.056C118.156 215.637 127.666 211.653 136.325 213.459Z" fill="currentColor"/>
<rect x="232" y="386" width="40" height="8" rx="4" fill="currentColor"/>
<path d="M227 363.5C227 369.851 221.851 371 215.5 371C209.149 371 204 369.851 204 363.5C204 357.149 209.149 352 215.5 352C221.851 352 227 357.149 227 363.5Z" fill="currentColor"/>
<path d="M300 363.5C300 369.851 294.851 370.5 288.5 370.5C282.149 370.5 277 369.851 277 363.5C277 357.149 282.149 352 288.5 352C294.851 352 300 357.149 300 363.5Z" fill="currentColor"/>
<path d="M272 390C272 395.304 269.893 400.391 266.142 404.142C262.391 407.893 257.304 410 252 410C246.696 410 241.609 407.893 237.858 404.142C234.107 400.391 232 395.304 232 390L238.036 390C238.036 393.703 239.507 397.255 242.126 399.874C244.745 402.493 248.297 403.964 252 403.964C255.703 403.964 259.255 402.493 261.874 399.874C264.493 397.255 265.964 393.703 265.964 390H272Z" fill="currentColor"/>
</g>
<path d="M402 324.5C391 324.5 381.5 322.417 373.5 318.25C365.667 314.083 359.583 308.083 355.25 300.25C351.083 292.25 349 282.833 349 272V189.5C349 178.5 351.083 169.083 355.25 161.25C359.583 153.417 365.667 147.417 373.5 143.25C381.5 139.083 391 137 402 137C413 137 422.417 139.083 430.25 143.25C438.25 147.417 444.333 153.417 448.5 161.25C452.833 169.083 455 178.417 455 189.25V272C455 282.833 452.833 292.25 448.5 300.25C444.333 308.083 438.25 314.083 430.25 318.25C422.417 322.417 413 324.5 402 324.5ZM402 304.25C411.833 304.25 419.333 301.5 424.5 296C429.833 290.333 432.5 282.333 432.5 272V189.5C432.5 179.167 429.833 171.25 424.5 165.75C419.333 160.083 411.833 157.25 402 157.25C392.333 157.25 384.833 160.083 379.5 165.75C374.167 171.25 371.5 179.167 371.5 189.5V272C371.5 282.333 374.167 290.333 379.5 296C384.833 301.5 392.333 304.25 402 304.25ZM468.152 322V139.5H490.652V241.25H517.152L557.152 184.5H582.902L536.652 250L583.652 322H557.402L517.402 260.75H490.652V322H468.152Z" fill="currentColor"/>
<path d="M337.75 472V334.5H359.75V360.75H365L357.75 377C357.75 362.167 360.917 351 367.25 343.5C373.75 335.833 383.333 332 396 332C410.5 332 422 336.583 430.5 345.75C439.167 354.75 443.5 367 443.5 382.5V390.75H421V384.5C421 373.667 418.333 365.417 413 359.75C407.833 353.917 400.417 351 390.75 351C381.25 351 373.75 353.917 368.25 359.75C362.917 365.583 360.25 373.833 360.25 384.5V472H337.75Z" fill="currentColor"/>
<path d="M23 255V72.5H81.75C93.0833 72.5 102.917 74.75 111.25 79.25C119.583 83.5833 126 89.75 130.5 97.75C135.167 105.75 137.5 115.25 137.5 126.25C137.5 137.083 135.167 146.583 130.5 154.75C126 162.75 119.583 169 111.25 173.5C102.917 177.833 93.0833 180 81.75 180H45.5V255H23ZM45.5 159.75H81.75C91.5833 159.75 99.4167 156.75 105.25 150.75C111.25 144.583 114.25 136.417 114.25 126.25C114.25 115.917 111.25 107.75 105.25 101.75C99.4167 95.75 91.5833 92.75 81.75 92.75H45.5V159.75Z" fill="currentColor"/>
<defs>
<clipPath id="clip0_110_7242">
<rect width="272" height="272" fill="white" transform="translate(56 181)"/>
</clipPath>
</defs>
</svg>
