<?xml version="1.0" encoding="UTF-8"?>
<!DOCTYPE svg PUBLIC "-//W3C//DTD SVG 1.1//EN" "http://www.w3.org/Graphics/SVG/1.1/DTD/svg11.dtd">
<svg xmlns="http://www.w3.org/2000/svg" version="1.1" width="1920px" height="1200px" style="shape-rendering:geometricPrecision; text-rendering:geometricPrecision; image-rendering:optimizeQuality; fill-rule:evenodd; clip-rule:evenodd" xmlns:xlink="http://www.w3.org/1999/xlink">
<g><path style="opacity:0.99" fill="#fb6340" d="M 811.5,-0.5 C 816.167,-0.5 820.833,-0.5 825.5,-0.5C 837.392,36.8899 862.725,58.7232 901.5,65C 940.5,65.6667 979.5,65.6667 1018.5,65C 1057.27,58.7232 1082.61,36.8899 1094.5,-0.5C 1099.17,-0.5 1103.83,-0.5 1108.5,-0.5C 1098.94,36.8977 1075.94,62.0643 1039.5,75C 1032.94,76.8463 1026.27,78.1796 1019.5,79C 979.833,79.6667 940.167,79.6667 900.5,79C 860.603,73.4361 832.437,52.2695 816,15.5C 813.983,10.2873 812.483,4.95397 811.5,-0.5 Z"/></g>
<g><path style="opacity:0.969" fill="#f5375d" d="M 1856.5,-0.5 C 1862.83,-0.5 1869.17,-0.5 1875.5,-0.5C 1887.71,11.1351 1902.38,17.1351 1919.5,17.5C 1919.5,22.1667 1919.5,26.8333 1919.5,31.5C 1893.09,31.1313 1872.09,20.4646 1856.5,-0.5 Z"/></g>
<g><path style="opacity:0.973" fill="#15cdef" d="M 172.5,88.5 C 228.237,86.2907 272.737,107.291 306,151.5C 336.89,200.617 339.556,251.283 314,303.5C 285.771,350.823 243.937,376.157 188.5,379.5C 178.123,380.316 175.123,376.149 179.5,367C 232.669,365.35 273.169,342.183 301,297.5C 325.47,248.679 322.47,201.679 292,156.5C 251.458,107.98 200.625,92.4802 139.5,110C 82.1664,133.442 51.9998,176.275 49,238.5C 39.8511,242.877 35.6845,239.877 36.5,229.5C 42.4303,160.787 78.097,115.621 143.5,94C 153.187,91.4998 162.854,89.6665 172.5,88.5 Z"/></g>
<g><path style="opacity:0.994" fill="#fb6340" d="M 1842.5,96.5 C 1883.77,95.6224 1908.61,115.289 1917,155.5C 1917.67,215.167 1917.67,274.833 1917,334.5C 1912.67,339.833 1908.33,339.833 1904,334.5C 1903.67,275.167 1903.33,215.833 1903,156.5C 1897.83,131.333 1882.67,116.167 1857.5,111C 1825.21,109.894 1805.37,125.061 1798,156.5C 1797.67,168.5 1797.33,180.5 1797,192.5C 1792.67,197.833 1788.33,197.833 1784,192.5C 1783.33,180.167 1783.33,167.833 1784,155.5C 1790.01,122.328 1809.51,102.662 1842.5,96.5 Z"/></g>
<g><path style="opacity:0.981" fill="#30ce89" d="M 175.5,165.5 C 213.276,164.146 238.442,181.146 251,216.5C 258.518,251.314 247.352,278.147 217.5,297C 185.889,311.581 157.389,307.081 132,283.5C 113.083,260.764 108.75,235.431 119,207.5C 130.749,183.884 149.582,169.884 175.5,165.5 Z M 176.5,179.5 C 210.696,178.869 231.529,195.202 239,228.5C 240.111,262.724 223.944,283.558 190.5,291C 156.276,292.111 135.442,275.944 128,242.5C 127.086,208.258 143.252,187.258 176.5,179.5 Z"/></g>
<g><path style="opacity:0.97" fill="#f5375c" d="M 1671.5,244.5 C 1707.14,243.33 1728.97,259.996 1737,294.5C 1737.33,304.833 1737.67,315.167 1738,325.5C 1745.17,354.662 1763.67,367.162 1793.5,363C 1810.34,358.158 1821.18,347.325 1826,330.5C 1827.22,319.215 1827.88,307.882 1828,296.5C 1832.33,291.167 1836.67,291.167 1841,296.5C 1844.92,318.22 1840.92,338.22 1829,356.5C 1805.17,381.198 1778.34,385.031 1748.5,368C 1734.31,357.799 1726.14,343.965 1724,326.5C 1723.67,316.5 1723.33,306.5 1723,296.5C 1718.5,276 1706,263.5 1685.5,259C 1658.45,257.772 1641.62,270.272 1635,296.5C 1634.67,306.5 1634.33,316.5 1634,326.5C 1629.67,331.833 1625.33,331.833 1621,326.5C 1620.33,316.167 1620.33,305.833 1621,295.5C 1626.65,267.347 1643.49,250.347 1671.5,244.5 Z"/></g>
<g><path style="opacity:0.998" fill="#2dce89" d="M 41.5,297.5 C 44.8621,297.07 47.6954,298.07 50,300.5C 50.6667,364.5 50.6667,428.5 50,492.5C 46,496.5 42,496.5 38,492.5C 37.3333,428.5 37.3333,364.5 38,300.5C 39.1451,299.364 40.3117,298.364 41.5,297.5 Z"/></g>
<g><path style="opacity:0.989" fill="#fb6340" d="M 120.5,365.5 C 124.594,364.705 127.761,366.038 130,369.5C 130.983,452.197 130.65,534.864 129,617.5C 116.866,655.265 91.0324,671.431 51.5,666C 20.3506,657.044 3.68394,636.377 1.5,604C 3.31596,571.852 19.6493,551.185 50.5,542C 56.7849,540.645 63.1182,540.311 69.5,541C 73.0738,544.524 73.4072,548.358 70.5,552.5C 49.6719,553.326 33.5052,562.326 22,579.5C 10.1173,605.428 15.2839,627.261 37.5,645C 62.4232,658.68 84.9232,655.513 105,635.5C 110.981,628.239 114.647,619.905 116,610.5C 116.333,530.167 116.667,449.833 117,369.5C 118.376,368.295 119.542,366.962 120.5,365.5 Z"/></g>
<g><path style="opacity:0.998" fill="#2ece89" d="M 1919.5,482.5 C 1919.5,489.833 1919.5,497.167 1919.5,504.5C 1910.43,560.74 1877.76,593.574 1821.5,603C 1728.5,603.667 1635.5,603.667 1542.5,603C 1537.17,598.667 1537.17,594.333 1542.5,590C 1635.17,589.667 1727.83,589.333 1820.5,589C 1868.77,580.394 1896.94,551.894 1905,503.5C 1907.05,455.587 1886.21,422.087 1842.5,403C 1830.7,399.459 1818.7,397.125 1806.5,396C 1803.4,391.267 1804.07,387.267 1808.5,384C 1847.68,383.84 1878.52,399.673 1901,431.5C 1911.07,447.208 1917.23,464.208 1919.5,482.5 Z"/></g>
<g><path style="opacity:0.976" fill="#2ece89" d="M 320.5,385.5 C 324.637,385.146 328.637,385.646 332.5,387C 334.504,389.841 335.004,393.007 334,396.5C 333.097,397.701 331.931,398.535 330.5,399C 298.4,401.102 280.733,418.102 277.5,450C 280.333,480.833 297.167,497.667 328,500.5C 350.175,499.256 365.842,488.589 375,468.5C 376.313,464.58 377.313,460.58 378,456.5C 378.333,434.167 378.667,411.833 379,389.5C 383.333,384.167 387.667,384.167 392,389.5C 392.667,412.167 392.667,434.833 392,457.5C 385.443,493.055 364.11,512.055 328,514.5C 288.5,511 267,489.5 263.5,450C 266.131,413.876 285.131,392.376 320.5,385.5 Z"/></g>
<g><path style="opacity:0.991" fill="#fb6340" d="M 1752.5,457.5 C 1785.17,457.333 1817.84,457.5 1850.5,458C 1855.83,462.333 1855.83,466.667 1850.5,471C 1818.17,471.333 1785.83,471.667 1753.5,472C 1707.98,479.184 1678.15,504.684 1664,548.5C 1661.73,558.375 1660.4,568.375 1660,578.5C 1655.67,583.833 1651.33,583.833 1647,578.5C 1647.29,530.926 1667.79,495.093 1708.5,471C 1722.53,463.999 1737.2,459.499 1752.5,457.5 Z"/></g>
<g><path style="opacity:0.998" fill="#2dce89" d="M 1637.5,671.5 C 1708.17,671.333 1778.83,671.5 1849.5,672C 1886.39,679.389 1906.05,701.889 1908.5,739.5C 1906.42,774.187 1888.75,796.353 1855.5,806C 1825.69,810.958 1802.19,801.125 1785,776.5C 1777.27,764.24 1773.94,750.907 1775,736.5C 1779.33,731.167 1783.67,731.167 1788,736.5C 1789.92,770.579 1807.75,789.579 1841.5,793.5C 1877.43,789.07 1894.93,768.737 1894,732.5C 1889.27,706.774 1874.11,691.274 1848.5,686C 1778.17,685.667 1707.83,685.333 1637.5,685C 1632.22,680.503 1632.22,676.003 1637.5,671.5 Z"/></g>
<g><path style="opacity:0.963" fill="#2ece89" d="M 66.5,706.5 C 97.1175,704.727 120.951,716.393 138,741.5C 143.327,750.486 146.661,760.153 148,770.5C 148.667,841.5 148.667,912.5 148,983.5C 143.667,988.833 139.333,988.833 135,983.5C 134.667,913.167 134.333,842.833 134,772.5C 128.876,743.376 111.709,726.209 82.5,721C 48.9156,719.523 27.0822,734.69 17,766.5C 12.6228,801.102 26.7894,824.269 59.5,836C 66.2119,836.97 72.8785,838.137 79.5,839.5C 81.4357,842.208 81.9357,845.208 81,848.5C 79.992,850.259 78.492,851.426 76.5,852C 40.164,850.665 15.9974,832.831 4,798.5C -3.1761,764.008 7.65723,736.842 36.5,717C 46.0346,711.768 56.0346,708.268 66.5,706.5 Z"/></g>
<g><path style="opacity:0.994" fill="#2ece89" d="M 1792.5,861.5 C 1796.59,860.705 1799.76,862.038 1802,865.5C 1803.47,894.623 1818.3,912.457 1846.5,919C 1874.96,920.364 1893.46,907.531 1902,880.5C 1903,875.547 1903.66,870.547 1904,865.5C 1908.33,860.167 1912.67,860.167 1917,865.5C 1917.25,896.567 1903.09,918.067 1874.5,930C 1839.66,939.064 1813.16,928.23 1795,897.5C 1790.2,887.341 1788.2,876.674 1789,865.5C 1790.38,864.295 1791.54,862.962 1792.5,861.5 Z"/></g>
<g><path style="opacity:0.98" fill="#12cdef" d="M 61.5,923.5 C 66.8437,923.334 72.1771,923.501 77.5,924C 82.8333,928.333 82.8333,932.667 77.5,937C 52.6461,935.674 33.8128,945.507 21,966.5C 9.47548,992.544 13.9755,1015.38 34.5,1035C 42.62,1041.71 51.9534,1045.71 62.5,1047C 114.833,1047.67 167.167,1047.67 219.5,1047C 243.922,1042.58 259.422,1028.41 266,1004.5C 270.51,978.025 261.343,957.858 238.5,944C 227.74,938.981 216.407,936.648 204.5,937C 199.167,932.667 199.167,928.333 204.5,924C 243.521,922.363 268.688,940.197 280,977.5C 285.219,1019.59 267.719,1047.09 227.5,1060C 172.194,1061.64 116.861,1061.97 61.5,1061C 30.3193,1055.82 10.4859,1037.99 2,1007.5C -2.79224,961.825 17.0411,933.825 61.5,923.5 Z"/></g>
</svg>
