<svg data-logo="logo" xmlns="http://www.w3.org/2000/svg" viewBox="0 0 182 44">
                <g id="logogram" transform="translate(0, 1.5)"><path d="M39.2001 32.783C45.8275 32.783 51.2001 27.4104 51.2001 20.783C51.2001 14.1555 45.8275 8.78296 39.2001 8.78296C32.9802 8.78296 27.8656 13.515 27.2601 19.5754C24.8084 18.4665 22.1597 17.8038 19.4473 17.6294C20.9595 8.08207 29.2274 0.782959 39.2001 0.782959C50.2458 0.782959 59.2001 9.73727 59.2001 20.783C59.2001 31.4258 50.887 40.127 40.4 40.7476V40.783H27.2195V39.0375C27.2195 36.7699 26.2844 34.5651 24.5705 32.9166C22.8517 31.2633 20.4908 30.3102 18 30.3102C15.5092 30.3102 13.1483 31.2633 11.4295 32.9166C9.71564 34.5651 8.78049 36.7699 8.78049 39.0375V40.783H0V38.9947C0 34.3201 1.94004 29.8735 5.33341 26.6227C8.61822 23.4759 13.0047 21.6932 17.5711 21.5879C17.7139 21.5846 17.8569 21.583 18 21.583C18.1108 21.583 18.2215 21.584 18.3322 21.5859C22.9333 21.668 27.3586 23.4537 30.6666 26.6227C32.4991 28.3782 33.9078 30.4824 34.8159 32.783H39.2001Z" fill="#000000"></path><path d="M21.677 35.7074C22.6521 36.5554 23.2 37.7056 23.2 38.9049V40.783H12.8V38.9049C12.8 37.7056 13.3479 36.5554 14.323 35.7074C15.2982 34.8594 16.6209 34.383 18 34.383C19.3791 34.383 20.7018 34.8594 21.677 35.7074Z" fill="#000000"></path><path d="M43.7818 18.8193C42.3358 18.8193 41.1637 17.6471 41.1637 16.2011V15.5466C41.1637 14.4621 40.2845 13.583 39.2 13.583C38.1155 13.583 37.2364 14.4621 37.2364 15.5466V16.2011C37.2364 17.6471 36.0642 18.8193 34.6182 18.8193H33.9636C32.8792 18.8193 32 19.6985 32 20.7829C32 21.8674 32.8792 22.7466 33.9636 22.7466H34.6182C36.0642 22.7466 37.2364 23.9188 37.2364 25.3648V26.0193C37.2364 27.1038 38.1155 27.983 39.2 27.983C40.2845 27.983 41.1637 27.1038 41.1637 26.0193V25.3648C41.1637 23.9188 42.3358 22.7466 43.7818 22.7466H44.4364C45.5209 22.7466 46.4 21.8674 46.4 20.7829C46.4 19.6985 45.5209 18.8193 44.4364 18.8193H43.7818Z" fill="#000000"></path><path d="M11.2001 3.983C11.2001 5.75028 12.6328 7.18295 14.4001 7.18295H15.2C16.5255 7.18295 17.6 8.25747 17.6 9.58295C17.6 10.9084 16.5255 11.9829 15.2 11.9829H14.4001C12.6328 11.9829 11.2001 13.4156 11.2001 15.1829V15.983C11.2001 17.3084 10.1256 18.383 8.80011 18.383C7.47463 18.383 6.40011 17.3084 6.40011 15.983L6.40011 15.183C6.40011 13.4156 4.96742 11.9829 3.20011 11.9829H2.4C1.07452 11.9829 0 10.9084 0 9.58295C0 8.25747 1.07452 7.18295 2.4 7.18295H3.20012C4.96742 7.18295 6.40011 5.75026 6.40011 3.98296L6.40011 3.18296C6.40011 1.85748 7.47463 0.782959 8.80011 0.782959C10.1256 0.782959 11.2001 1.85748 11.2001 3.18296V3.983Z" fill="#000000"></path></g>
                <g id="logotype" transform="translate(66, 0)"><path fill="#000000" d="M14.09 35L8.17 35L8.17 10.43L18.18 10.43Q21.09 10.43 23.08 11.37Q25.08 12.32 26.14 14.02Q27.21 15.71 27.21 17.95L27.21 17.95Q27.21 20.23 25.81 21.96Q24.41 23.70 21.93 24.29L21.93 24.29Q23.75 24.88 25.15 26.35Q26.55 27.82 27.49 30.01Q28.44 32.20 28.75 35L28.75 35L22.38 35Q22.21 32.59 21.47 30.70Q20.73 28.80 19.20 27.65L19.20 27.65Q18.25 26.91 16.99 26.51Q15.73 26.11 14.09 26.07L14.09 26.07L14.09 35ZM14.09 15.22L14.09 21.35L17.83 21.35Q19.48 21.35 20.33 20.46Q21.19 19.56 21.19 18.20L21.19 18.20Q21.19 16.87 20.32 16.05Q19.44 15.22 17.83 15.22L17.83 15.22L14.09 15.22ZM36.91 35L31.03 35L31.03 15.47L36.91 15.47L36.91 35ZM34 13.40L34 13.40Q32.29 13.40 31.20 12.42Q30.12 11.44 30.12 9.97L30.12 9.97Q30.12 8.47 31.20 7.47Q32.29 6.47 34 6.47L34 6.47Q35.68 6.47 36.77 7.47Q37.85 8.47 37.85 9.97L37.85 9.97Q37.85 11.44 36.77 12.42Q35.68 13.40 34 13.40ZM52.13 35.24L52.13 35.24Q49.93 35.24 48.25 34.04Q46.56 32.83 45.87 30.70L45.87 30.70L45.87 44.27L39.95 44.27L39.95 15.47L45.87 15.47L45.87 19.81Q46.56 17.64 48.25 16.43Q49.93 15.22 52.13 15.22L52.13 15.22Q54.69 15.22 56.58 16.55Q58.47 17.88 59.50 20.16Q60.53 22.43 60.53 25.23L60.53 25.23Q60.53 28.07 59.50 30.33Q58.47 32.59 56.58 33.91Q54.69 35.24 52.13 35.24ZM50.20 30.06L50.20 30.06Q51.36 30.06 52.36 29.50Q53.36 28.95 53.93 27.86Q54.51 26.77 54.51 25.23L54.51 25.23Q54.51 23.73 53.93 22.64Q53.36 21.56 52.36 20.96Q51.36 20.37 50.20 20.37L50.20 20.37Q49.05 20.37 48.05 20.96Q47.05 21.56 46.46 22.64Q45.87 23.73 45.87 25.23L45.87 25.23Q45.87 26.77 46.46 27.86Q47.05 28.95 48.05 29.50Q49.05 30.06 50.20 30.06ZM74.70 35.24L74.70 35.24Q72.50 35.24 70.82 34.04Q69.14 32.83 68.44 30.70L68.44 30.70L68.44 44.27L62.52 44.27L62.52 15.47L68.44 15.47L68.44 19.81Q69.14 17.64 70.82 16.43Q72.50 15.22 74.70 15.22L74.70 15.22Q77.26 15.22 79.15 16.55Q81.04 17.88 82.07 20.16Q83.11 22.43 83.11 25.23L83.11 25.23Q83.11 28.07 82.07 30.33Q81.04 32.59 79.15 33.91Q77.26 35.24 74.70 35.24ZM72.78 30.06L72.78 30.06Q73.94 30.06 74.93 29.50Q75.93 28.95 76.51 27.86Q77.08 26.77 77.08 25.23L77.08 25.23Q77.08 23.73 76.51 22.64Q75.93 21.56 74.93 20.96Q73.94 20.37 72.78 20.37L72.78 20.37Q71.63 20.37 70.63 20.96Q69.63 21.56 69.03 22.64Q68.44 23.73 68.44 25.23L68.44 25.23Q68.44 26.77 69.03 27.86Q69.63 28.95 70.63 29.50Q71.63 30.06 72.78 30.06ZM85.10 28.95L85.10 28.95L85.10 9.10L91.02 9.10L91.02 28.66Q91.02 29.43 91.49 29.82Q91.96 30.20 92.59 30.20L92.59 30.20Q93.01 30.20 93.40 30.06L93.40 30.06L94.34 34.62Q92.94 35.24 91.19 35.24L91.19 35.24Q89.72 35.24 88.32 34.65Q86.92 34.05 86.01 32.67Q85.10 31.29 85.10 28.95ZM105.33 35.24L105.33 35.24Q103.20 35.24 101.25 34.58Q99.31 33.91 97.82 32.64Q96.34 31.36 95.48 29.54Q94.62 27.72 94.62 25.38L94.62 25.38Q94.62 23.13 95.44 21.28Q96.27 19.42 97.68 18.06Q99.10 16.69 100.97 15.96Q102.85 15.22 104.95 15.22L104.95 15.22Q106.66 15.22 108.22 15.68Q109.78 16.13 111.02 17.01Q112.26 17.88 112.98 19.07Q113.70 20.27 113.70 21.73L113.70 21.73Q113.70 23.59 112.65 24.81Q111.60 26.04 109.90 26.74Q108.20 27.44 106.19 27.74Q104.18 28.04 102.22 28L102.22 28Q101.97 28 101.64 27.98Q101.31 27.96 101.03 27.95Q100.75 27.93 100.61 27.93L100.61 27.93Q100.82 28.73 101.50 29.38Q102.18 30.03 103.23 30.41Q104.28 30.80 105.40 30.80L105.40 30.80Q106.52 30.80 107.55 30.41Q108.59 30.03 109.43 29.43Q110.27 28.84 110.86 28.11L110.86 28.11L114.64 31.08Q113.59 32.48 112.09 33.41Q110.58 34.34 108.85 34.79Q107.12 35.24 105.33 35.24ZM102.25 24.11L102.25 24.11Q103.20 24.11 104.21 24.01Q105.23 23.91 106.08 23.64Q106.94 23.38 107.48 22.91Q108.03 22.43 108.03 21.70L108.03 21.70Q108.03 21.10 107.61 20.65Q107.19 20.20 106.49 19.95Q105.79 19.70 104.98 19.70L104.98 19.70Q103.58 19.70 102.53 20.37Q101.48 21.03 100.92 22.03Q100.36 23.03 100.29 24.04L100.29 24.04Q100.61 24.08 101.15 24.10Q101.69 24.11 102.25 24.11Z"></path></g>
                
            </svg>