<svg width="107" height="38" viewBox="0 0 107 38" fill="none" xmlns="http://www.w3.org/2000/svg">
<path d="M6.08992 29H0.169922V4.42997H10.1799C12.1199 4.42997 13.7533 4.7433 15.0799 5.36997C16.4133 6.0033 17.4333 6.88664 18.1399 8.01997C18.8533 9.14664 19.2099 10.4566 19.2099 11.95C19.2099 13.47 18.7433 14.8066 17.8099 15.96C16.8766 17.12 15.5833 17.8966 13.9299 18.29C15.1433 18.6833 16.2166 19.37 17.1499 20.35C18.0833 21.33 18.8633 22.55 19.4899 24.01C20.1233 25.47 20.5433 27.1333 20.7499 29H14.3799C14.2666 27.3933 13.9633 25.96 13.4699 24.7C12.9766 23.4333 12.2199 22.4166 11.1999 21.65C10.5666 21.1566 9.82992 20.7766 8.98992 20.51C8.14992 20.2433 7.18326 20.0966 6.08992 20.07V29ZM6.08992 9.21997V15.35H9.82992C10.9299 15.35 11.7633 15.0533 12.3299 14.46C12.9033 13.86 13.1899 13.1066 13.1899 12.2C13.1899 11.3133 12.8999 10.5966 12.3199 10.05C11.7333 9.49664 10.9033 9.21997 9.82992 9.21997H6.08992ZM28.9099 29H23.0299V9.46997H28.9099V29ZM25.9999 7.39997C24.8599 7.39997 23.9266 7.0733 23.1999 6.41997C22.4799 5.76664 22.1199 4.94997 22.1199 3.96997C22.1199 2.96997 22.4799 2.13664 23.1999 1.46997C23.9266 0.803304 24.8599 0.469971 25.9999 0.469971C27.1199 0.469971 28.0433 0.803304 28.7699 1.46997C29.4899 2.13664 29.8499 2.96997 29.8499 3.96997C29.8499 4.94997 29.4899 5.76664 28.7699 6.41997C28.0433 7.0733 27.1199 7.39997 25.9999 7.39997ZM44.1299 29.24C42.6633 29.24 41.3699 28.84 40.2499 28.04C39.1233 27.2333 38.3299 26.12 37.8699 24.7V38.27H31.9499V9.46997H37.8699V13.81C38.3299 12.3633 39.1233 11.2366 40.2499 10.43C41.3699 9.62331 42.6633 9.21997 44.1299 9.21997C45.8366 9.21997 47.3199 9.6633 48.5799 10.55C49.8399 11.4366 50.8133 12.64 51.4999 14.16C52.1866 15.6733 52.5299 17.3633 52.5299 19.23C52.5299 21.1233 52.1866 22.8233 51.4999 24.33C50.8133 25.8366 49.8399 27.03 48.5799 27.91C47.3199 28.7966 45.8366 29.24 44.1299 29.24ZM42.1999 24.06C42.9733 24.06 43.6933 23.8733 44.3599 23.5C45.0266 23.1333 45.5499 22.5866 45.9299 21.86C46.3166 21.1333 46.5099 20.2566 46.5099 19.23C46.5099 18.23 46.3166 17.3666 45.9299 16.64C45.5499 15.92 45.0266 15.36 44.3599 14.96C43.6933 14.5666 42.9733 14.37 42.1999 14.37C41.4333 14.37 40.7166 14.5666 40.0499 14.96C39.3833 15.36 38.8533 15.92 38.4599 16.64C38.0666 17.3666 37.8699 18.23 37.8699 19.23C37.8699 20.2566 38.0666 21.1333 38.4599 21.86C38.8533 22.5866 39.3833 23.1333 40.0499 23.5C40.7166 23.8733 41.4333 24.06 42.1999 24.06ZM66.6999 29.24C65.2333 29.24 63.9399 28.84 62.8199 28.04C61.6999 27.2333 60.9066 26.12 60.4399 24.7V38.27H54.5199V9.46997H60.4399V13.81C60.9066 12.3633 61.6999 11.2366 62.8199 10.43C63.9399 9.62331 65.2333 9.21997 66.6999 9.21997C68.4066 9.21997 69.8899 9.6633 71.1499 10.55C72.4099 11.4366 73.3833 12.64 74.0699 14.16C74.7633 15.6733 75.1099 17.3633 75.1099 19.23C75.1099 21.1233 74.7633 22.8233 74.0699 24.33C73.3833 25.8366 72.4099 27.03 71.1499 27.91C69.8899 28.7966 68.4066 29.24 66.6999 29.24ZM64.7799 24.06C65.5533 24.06 66.2699 23.8733 66.9299 23.5C67.5966 23.1333 68.1233 22.5866 68.5099 21.86C68.8899 21.1333 69.0799 20.2566 69.0799 19.23C69.0799 18.23 68.8899 17.3666 68.5099 16.64C68.1233 15.92 67.5966 15.36 66.9299 14.96C66.2699 14.5666 65.5533 14.37 64.7799 14.37C64.0133 14.37 63.2966 14.5666 62.6299 14.96C61.9633 15.36 61.4299 15.92 61.0299 16.64C60.6366 17.3666 60.4399 18.23 60.4399 19.23C60.4399 20.2566 60.6366 21.1333 61.0299 21.86C61.4299 22.5866 61.9633 23.1333 62.6299 23.5C63.2966 23.8733 64.0133 24.06 64.7799 24.06ZM77.0999 22.95V3.09997H83.0199V22.66C83.0199 23.1733 83.1766 23.56 83.4899 23.82C83.8033 24.0733 84.1699 24.2 84.5899 24.2C84.8699 24.2 85.1399 24.1533 85.3999 24.06L86.3399 28.62C85.4066 29.0333 84.3566 29.24 83.1899 29.24C82.2099 29.24 81.2533 29.0433 80.3199 28.65C79.3866 28.25 78.6166 27.59 78.0099 26.67C77.4033 25.75 77.0999 24.51 77.0999 22.95ZM97.3299 29.24C95.9099 29.24 94.5499 29.02 93.2499 28.58C91.9566 28.1333 90.8133 27.4866 89.8199 26.64C88.8333 25.7866 88.0533 24.7533 87.4799 23.54C86.9066 22.3266 86.6199 20.94 86.6199 19.38C86.6199 17.88 86.8933 16.5133 87.4399 15.28C87.9933 14.04 88.7399 12.9666 89.6799 12.06C90.6266 11.1466 91.7233 10.4466 92.9699 9.95997C94.2233 9.46664 95.5499 9.21997 96.9499 9.21997C98.0899 9.21997 99.1799 9.37331 100.22 9.67997C101.26 9.97997 102.193 10.4233 103.02 11.01C103.847 11.59 104.5 12.2766 104.98 13.07C105.46 13.87 105.7 14.7566 105.7 15.73C105.7 16.97 105.35 17.9966 104.65 18.81C103.95 19.63 103.033 20.2733 101.9 20.74C100.767 21.2066 99.5299 21.54 98.1899 21.74C96.8499 21.94 95.5266 22.0266 94.2199 22C94.0533 22 93.8599 21.9933 93.6399 21.98C93.4199 21.9666 93.2166 21.9566 93.0299 21.95C92.8433 21.9366 92.7033 21.93 92.6099 21.93C92.7499 22.4633 93.0466 22.9466 93.4999 23.38C93.9533 23.8133 94.5299 24.1566 95.2299 24.41C95.9299 24.67 96.6533 24.8 97.3999 24.8C98.1466 24.8 98.8633 24.67 99.5499 24.41C100.243 24.1566 100.87 23.83 101.43 23.43C101.99 23.0366 102.467 22.5966 102.86 22.11L106.64 25.08C105.94 26.0133 105.09 26.79 104.09 27.41C103.083 28.03 102.003 28.49 100.85 28.79C99.6966 29.09 98.5233 29.24 97.3299 29.24ZM94.2499 18.11C94.8833 18.11 95.5366 18.0766 96.2099 18.01C96.8899 17.9433 97.5133 17.82 98.0799 17.64C98.6533 17.4666 99.1199 17.2233 99.4799 16.91C99.8466 16.59 100.03 16.1866 100.03 15.7C100.03 15.3 99.8899 14.95 99.6099 14.65C99.3299 14.35 98.9566 14.1166 98.4899 13.95C98.0233 13.7833 97.5199 13.7 96.9799 13.7C96.0466 13.7 95.2299 13.9233 94.5299 14.37C93.8299 14.81 93.2933 15.3633 92.9199 16.03C92.5466 16.6966 92.3366 17.3666 92.2899 18.04C92.5033 18.0666 92.7899 18.0866 93.1499 18.1C93.5099 18.1066 93.8766 18.11 94.2499 18.11Z" fill="black"/>
</svg>
